<svg width="320" height="320" viewBox="0 0 320 320" fill="none" xmlns="http://www.w3.org/2000/svg">
<g clip-path="url(#clip0_27_122)">
<path d="M160 320C248.366 320 320 248.366 320 160C320 71.6344 248.366 0 160 0C71.6344 0 0 71.6344 0 160C0 248.366 71.6344 320 160 320Z" fill="#080808"/>
<path opacity="0.7" d="M160 308C241.738 308 308 241.738 308 160C308 78.2619 241.738 12 160 12C78.2619 12 12 78.2619 12 160C12 241.738 78.2619 308 160 308Z" stroke="#00E5FF" stroke-width="4"/>
<path opacity="0.3" d="M160 300C237.32 300 300 237.32 300 160C300 82.6801 237.32 20 160 20C82.6801 20 20 82.6801 20 160C20 237.32 82.6801 300 160 300Z" stroke="#00FF88" stroke-width="2"/>
<path opacity="0.18" d="M160 60L228 100V180L160 220L92 180V100L160 60Z" stroke="#00E5FF" stroke-width="1.5"/>
<path opacity="0.1" d="M160 78L214 110V174L160 206L106 174V110L160 78Z" stroke="#00E5FF" stroke-width="0.6"/>
<path opacity="0.5" d="M12 160H263" stroke="#00E5FF" stroke-width="1.5"/>
<path opacity="0.6" d="M12 164C14.2091 164 16 162.209 16 160C16 157.791 14.2091 156 12 156C9.79086 156 8 157.791 8 160C8 162.209 9.79086 164 12 164Z" fill="#00E5FF"/>
<path opacity="0.4" d="M36 162C37.1046 162 38 161.105 38 160C38 158.895 37.1046 158 36 158C34.8954 158 34 158.895 34 160C34 161.105 34.8954 162 36 162Z" fill="#00E5FF"/>
<path opacity="0.5" d="M260 160H308" stroke="#00E5FF" stroke-width="1.5"/>
<path opacity="0.6" d="M308 164C310.209 164 312 162.209 312 160C312 157.791 310.209 156 308 156C305.791 156 304 157.791 304 160C304 162.209 305.791 164 308 164Z" fill="#00E5FF"/>
<path opacity="0.4" d="M284 162C285.105 162 286 161.105 286 160C286 158.895 285.105 158 284 158C282.895 158 282 158.895 282 160C282 161.105 282.895 162 284 162Z" fill="#00E5FF"/>
<path opacity="0.3" d="M160 12V60" stroke="#00E5FF" stroke-width="1.5"/>
<path opacity="0.4" d="M160 15C161.657 15 163 13.6569 163 12C163 10.3431 161.657 9 160 9C158.343 9 157 10.3431 157 12C157 13.6569 158.343 15 160 15Z" fill="#00E5FF"/>
<path opacity="0.3" d="M160 60V308" stroke="#00E5FF" stroke-width="1.5"/>
<path opacity="0.4" d="M160 311C161.657 311 163 309.657 163 308C163 306.343 161.657 305 160 305C158.343 305 157 306.343 157 308C157 309.657 158.343 311 160 311Z" fill="#00E5FF"/>
<path d="M160 88L210 116V172L160 200L110 172V116L160 88Z" fill="#0D0D0D" stroke="#00E5FF" stroke-width="2.5"/>
<path opacity="0.25" d="M160 96L204 122V166L160 192L116 166V122L160 96Z" stroke="#00E5FF" stroke-width="0.7"/>
<path d="M160 87L124 147H152L144 195L192 135H164L160 87Z" fill="white"/>
<path d="M160 87L124 147H152L144 195L192 135H164L160 87Z" stroke="#00E5FF" stroke-width="2"/>
<path opacity="0.2" d="M160 87L152 147H160L192 135L160 87Z" fill="#00E5FF"/>
<path d="M160 88C163.866 88 167 84.866 167 81C167 77.134 163.866 74 160 74C156.134 74 153 77.134 153 81C153 84.866 156.134 88 160 88Z" fill="#00FF88"/>
<path d="M160 84.5C161.933 84.5 163.5 82.933 163.5 81C163.5 79.067 161.933 77.5 160 77.5C158.067 77.5 156.5 79.067 156.5 81C156.5 82.933 158.067 84.5 160 84.5Z" fill="#080808"/>
<path d="M128.224 221.727V245H123.304V221.727H128.224ZM151.739 221.727V245H147.489L137.364 230.352H137.193V245H132.273V221.727H136.591L146.636 236.364H146.841V221.727H151.739ZM171.236 229.25C171.077 228.697 170.853 228.208 170.565 227.784C170.277 227.352 169.925 226.989 169.509 226.693C169.099 226.39 168.63 226.159 168.099 226C167.577 225.841 166.997 225.761 166.361 225.761C165.171 225.761 164.126 226.057 163.224 226.648C162.33 227.239 161.634 228.098 161.134 229.227C160.634 230.348 160.384 231.72 160.384 233.341C160.384 234.962 160.63 236.341 161.122 237.477C161.615 238.614 162.312 239.481 163.213 240.08C164.115 240.67 165.179 240.966 166.406 240.966C167.52 240.966 168.471 240.769 169.259 240.375C170.054 239.973 170.66 239.409 171.077 238.682C171.501 237.955 171.713 237.095 171.713 236.102L172.713 236.25H166.713V232.545H176.452V235.477C176.452 237.523 176.02 239.28 175.156 240.75C174.293 242.212 173.103 243.341 171.588 244.136C170.073 244.924 168.338 245.318 166.384 245.318C164.202 245.318 162.285 244.837 160.634 243.875C158.982 242.905 157.694 241.53 156.77 239.75C155.853 237.962 155.395 235.841 155.395 233.386C155.395 231.5 155.668 229.818 156.213 228.341C156.766 226.856 157.539 225.598 158.531 224.568C159.524 223.538 160.679 222.754 161.997 222.216C163.315 221.678 164.743 221.409 166.281 221.409C167.599 221.409 168.827 221.602 169.963 221.989C171.099 222.367 172.107 222.905 172.986 223.602C173.872 224.299 174.596 225.129 175.156 226.091C175.717 227.045 176.077 228.098 176.236 229.25H171.236ZM180.148 245V221.727H195.83V225.784H185.068V231.33H195.023V235.386H185.068V240.943H195.875V245H180.148Z" fill="#00E5FF"/>
<path d="M145.077 251.273C145.009 250.697 144.733 250.25 144.248 249.932C143.763 249.614 143.168 249.455 142.464 249.455C141.949 249.455 141.498 249.538 141.112 249.705C140.729 249.871 140.43 250.1 140.214 250.392C140.002 250.684 139.896 251.015 139.896 251.386C139.896 251.697 139.969 251.964 140.117 252.188C140.269 252.407 140.462 252.591 140.697 252.739C140.932 252.883 141.178 253.002 141.435 253.097C141.693 253.187 141.93 253.261 142.146 253.318L143.327 253.636C143.63 253.716 143.968 253.826 144.339 253.966C144.714 254.106 145.072 254.297 145.413 254.54C145.757 254.778 146.041 255.085 146.265 255.46C146.488 255.835 146.6 256.295 146.6 256.841C146.6 257.47 146.435 258.038 146.106 258.545C145.78 259.053 145.303 259.456 144.674 259.756C144.049 260.055 143.29 260.205 142.396 260.205C141.562 260.205 140.841 260.07 140.231 259.801C139.625 259.532 139.147 259.157 138.799 258.676C138.454 258.195 138.259 257.636 138.214 257H139.668C139.706 257.439 139.854 257.803 140.112 258.091C140.373 258.375 140.702 258.587 141.1 258.727C141.502 258.864 141.933 258.932 142.396 258.932C142.933 258.932 143.416 258.845 143.844 258.67C144.272 258.492 144.612 258.246 144.862 257.932C145.112 257.614 145.237 257.242 145.237 256.818C145.237 256.432 145.129 256.117 144.913 255.875C144.697 255.633 144.413 255.436 144.06 255.284C143.708 255.133 143.327 255 142.918 254.886L141.487 254.477C140.577 254.216 139.858 253.843 139.327 253.358C138.797 252.873 138.532 252.239 138.532 251.455C138.532 250.803 138.708 250.235 139.06 249.75C139.416 249.261 139.894 248.883 140.492 248.614C141.094 248.341 141.767 248.205 142.509 248.205C143.259 248.205 143.926 248.339 144.509 248.608C145.093 248.873 145.555 249.237 145.896 249.699C146.24 250.161 146.422 250.686 146.441 251.273H145.077ZM148.917 260V248.364H150.326V253.545H156.531V248.364H157.94V260H156.531V254.795H150.326V260H148.917ZM170.579 254.182C170.579 255.409 170.357 256.47 169.914 257.364C169.471 258.258 168.863 258.947 168.09 259.432C167.317 259.917 166.435 260.159 165.442 260.159C164.45 260.159 163.567 259.917 162.795 259.432C162.022 258.947 161.414 258.258 160.971 257.364C160.528 256.47 160.306 255.409 160.306 254.182C160.306 252.955 160.528 251.894 160.971 251C161.414 250.106 162.022 249.417 162.795 248.932C163.567 248.447 164.45 248.205 165.442 248.205C166.435 248.205 167.317 248.447 168.09 248.932C168.863 249.417 169.471 250.106 169.914 251C170.357 251.894 170.579 252.955 170.579 254.182ZM169.215 254.182C169.215 253.174 169.047 252.324 168.71 251.631C168.376 250.938 167.924 250.413 167.352 250.057C166.783 249.701 166.147 249.523 165.442 249.523C164.738 249.523 164.1 249.701 163.528 250.057C162.96 250.413 162.507 250.938 162.17 251.631C161.836 252.324 161.67 253.174 161.67 254.182C161.67 255.189 161.836 256.04 162.17 256.733C162.507 257.426 162.96 257.951 163.528 258.307C164.1 258.663 164.738 258.841 165.442 258.841C166.147 258.841 166.783 258.663 167.352 258.307C167.924 257.951 168.376 257.426 168.71 256.733C169.047 256.04 169.215 255.189 169.215 254.182ZM172.948 260V248.364H176.88C177.793 248.364 178.539 248.528 179.119 248.858C179.702 249.184 180.134 249.625 180.414 250.182C180.694 250.739 180.835 251.36 180.835 252.045C180.835 252.731 180.694 253.354 180.414 253.915C180.138 254.475 179.71 254.922 179.13 255.256C178.55 255.585 177.808 255.75 176.903 255.75H174.085V254.5H176.857C177.482 254.5 177.984 254.392 178.363 254.176C178.742 253.96 179.016 253.669 179.187 253.301C179.361 252.93 179.448 252.511 179.448 252.045C179.448 251.58 179.361 251.163 179.187 250.795C179.016 250.428 178.74 250.14 178.357 249.932C177.975 249.72 177.467 249.614 176.835 249.614H174.357V260H172.948Z" fill="white"/>
<path opacity="0.4" d="M92 103C93.6569 103 95 101.657 95 100C95 98.3431 93.6569 97 92 97C90.3431 97 89 98.3431 89 100C89 101.657 90.3431 103 92 103Z" fill="#00E5FF"/>
<path opacity="0.4" d="M228 103C229.657 103 231 101.657 231 100C231 98.3431 229.657 97 228 97C226.343 97 225 98.3431 225 100C225 101.657 226.343 103 228 103Z" fill="#00E5FF"/>
<path opacity="0.4" d="M92 183C93.6569 183 95 181.657 95 180C95 178.343 93.6569 177 92 177C90.3431 177 89 178.343 89 180C89 181.657 90.3431 183 92 183Z" fill="#00E5FF"/>
<path opacity="0.4" d="M228 183C229.657 183 231 181.657 231 180C231 178.343 229.657 177 228 177C226.343 177 225 178.343 225 180C225 181.657 226.343 183 228 183Z" fill="#00E5FF"/>
</g>
<defs>
<clipPath id="clip0_27_122">
<rect width="320" height="320" fill="white"/>
</clipPath>
</defs>
</svg>
